<svg xmlns="http://www.w3.org/2000/svg" viewBox="0 0 600 600">
<g transform="translate(0,600) scale(0.1,-0.1)" fill="#141414" stroke="none">
<path d="M2364 4690 c-240 -63 -418 -255 -455 -489 -20 -135 26 -296 126 -436 l45 -63 -28 -7 c-15 -3 -64 -24 -109 -45 -407 -190 -653 -586 -653 -1050 0 -316 107 -593 315 -818 187 -202 506 -364 875 -446 279 -61 599 -86 886 -67 813 51 1202 322 1326 921 28 137 35 429 14 570 -42 273 -148 484 -329 656 -66 63 -169 138 -256 186 l-32 17 66 83 c133 167 190 334 167 491 -49 333 -387 555 -734 482 -143 -31 -327 -144 -430 -266 -23 -27 -44 -49 -47 -49 -4 0 -27 28 -51 61 -96 132 -247 236 -395 274 -80 20 -213 18 -301 -5z m263 -370 c84 -37 196 -169 246 -294 22 -54 22 -57 8 -134 l-16 -80 -145 -6 c-80 -4 -159 -9 -176 -12 -29 -5 -39 1 -108 70 -162 163 -197 268 -123 377 44 66 155 113 237 102 19 -3 54 -13 77 -23z m1190 -15 c127 -53 175 -167 118 -281 -28 -57 -118 -164 -187 -224 l-46 -40 -87 15 c-47 8 -150 20 -227 27 l-140 11 6 41 c25 157 225 401 371 454 45 16 150 14 192 -3z m-315 -860 c467 -70 748 -277 839 -621 30 -112 37 -352 16 -491 -74 -461 -354 -656 -1012 -704 -87 -6 -196 -8 -242 -4 l-83 7 -45 63 c-124 173 -225 462 -256 725 -16 143 -6 398 20 512 43 187 139 371 261 499 l40 42 180 -6 c98 -4 225 -14 282 -22z m-1076 -82 c-109 -218 -169 -513 -169 -838 0 -248 39 -428 147 -681 29 -68 50 -124 45 -124 -5 0 -62 17 -126 39 -295 97 -482 242 -587 456 -55 112 -73 174 -86 296 -17 166 12 325 88 474 112 223 311 365 596 425 137 28 132 31 92 -47z"/>
<path d="M3150 2898 c-19 -13 -45 -43 -57 -68 -21 -41 -23 -58 -23 -220 0 -162 2 -179 23 -220 57 -115 202 -123 281 -17 19 26 21 44 24 215 2 111 -1 201 -7 222 -6 20 -26 51 -46 70 -31 30 -43 35 -98 38 -52 3 -67 0 -97 -20z"/>
<path d="M3789 2896 c-63 -43 -69 -69 -69 -286 0 -218 5 -240 70 -285 61 -43 146 -37 204 14 44 38 48 64 47 275 -2 223 -6 240 -71 283 -47 33 -132 32 -181 -1z"/>
</g>
</svg>